<svg xmlns="http://www.w3.org/2000/svg" version="1.1" xmlns:xlink="http://www.w3.org/1999/xlink" width="48" height="48"><svg width="48" height="48" viewBox="0 0 48 48" fill="none" xmlns="http://www.w3.org/2000/svg">
<rect width="48" height="48" fill="#14141F"></rect>
<path d="M23.4414 10.152C24.1064 8.43141 25.2155 7.21698 26.7689 6.50866C28.3271 5.7877 29.9412 5.74992 31.6112 6.39535C32.9649 6.91854 33.952 7.65633 34.5727 8.60872C35.1983 9.54847 35.3228 10.5054 34.9463 11.4795C34.7067 12.0994 34.3189 12.5385 33.7829 12.7966C33.2469 13.0548 32.688 13.0714 32.106 12.8465C31.6632 12.6753 31.3487 12.3793 31.1624 11.9583C30.9937 11.5296 30.9998 11.0811 31.1807 10.6131L31.2614 10.4043C31.3258 10.3129 31.3776 10.2166 31.4167 10.1153C31.6269 9.57135 31.3272 9.14289 30.5175 8.82995C29.7205 8.52191 28.9951 8.5178 28.3412 8.81763C27.6922 9.1048 27.2112 9.65323 26.8983 10.4629C26.2675 12.0949 26.6751 14.4263 28.1211 17.4571L29.2784 19.8238C29.8151 20.9183 30.1986 22.2588 30.4287 23.8455C30.6637 25.4195 30.5148 26.896 29.9818 28.2749C29.5417 29.4135 28.9218 30.359 28.1221 31.1114C27.3273 31.8512 26.2107 32.5393 24.7723 33.1757C25.1992 34.7802 25.107 36.3732 24.4958 37.9546C23.8601 39.5992 22.7403 40.7659 21.1364 41.4547C19.5401 42.161 17.9071 42.1914 16.2371 41.546C14.9088 41.0326 13.9352 40.2782 13.3166 39.283C12.7057 38.3053 12.5934 37.3167 12.9796 36.3173C13.2339 35.6594 13.6627 35.1708 14.266 34.8514C14.8644 34.5447 15.4609 34.5062 16.0555 34.7361C16.5995 34.9463 16.9762 35.2882 17.1858 35.7618C17.4031 36.253 17.4067 36.7705 17.1964 37.3145C17.1133 37.5296 17.0049 37.7349 16.8711 37.9304C16.8067 38.0218 16.7672 38.0865 16.7525 38.1245C16.684 38.3016 16.7139 38.4876 16.8421 38.6826C16.9655 38.8902 17.1473 39.0405 17.3877 39.1334C18.1468 39.4268 18.9059 39.4002 19.665 39.0538C20.4368 38.7123 20.9694 38.1621 21.2628 37.403C21.5708 36.606 21.6113 35.6546 21.3843 34.549C21.1572 33.4434 20.5884 31.7549 19.6777 29.4836C18.8162 27.5366 18.2636 26.0506 18.0199 25.0258C17.781 23.9884 17.6942 22.9151 17.7593 21.8061C17.8244 20.6971 18.0403 19.6681 18.407 18.7193C19.1992 16.6698 20.7499 15.1971 23.0592 14.3011C22.8201 12.8128 22.9475 11.4297 23.4414 10.152ZM25.5885 20.906L23.8477 17.1142C22.6762 17.7374 21.9022 18.5361 21.5257 19.5102C21.3253 20.0289 21.2128 20.6398 21.1882 21.3428C21.1813 22.0381 21.2614 22.7525 21.4287 23.486C21.6135 24.2118 22.1142 25.5686 22.9309 27.5564L24.0438 30.3204C24.645 30.0438 25.1959 29.6533 25.6962 29.1487C26.1966 28.6441 26.547 28.1325 26.7475 27.6138C26.948 27.0951 27.0589 26.5636 27.0802 26.0193C27.1191 25.4672 27.0723 24.9111 26.9398 24.351C26.8073 23.7908 26.3569 22.6425 25.5885 20.906Z" fill="white"></path>
</svg><style>@media (prefers-color-scheme: light) { :root { filter: none; } }
@media (prefers-color-scheme: dark) { :root { filter: none; } }
</style></svg>